<svg width="32" height="32" viewBox="0 0 32 32" fill="none" xmlns="http://www.w3.org/2000/svg">
<g clip-path="url(#clip0_142_2669)">
<path d="M0 0H32V32H0V0Z" fill="#032EA1"/>
<path d="M0 8H32V24H0V8Z" fill="#E00025"/>
<path d="M11.4949 15.0859H20.5989V18.5899H11.4949V15.0859Z" fill="white" stroke="black" stroke-width="0.16" stroke-linejoin="bevel"/>
<path d="M20.1349 17.0137H20.4149V18.3337H20.1349V17.0137ZM11.4949 16.3657H20.5989V16.7657H11.4949V16.3657ZM11.4949 15.8057H20.5989V16.1737H11.4949V15.8057Z" fill="white" stroke="black" stroke-width="0.16" stroke-linejoin="bevel"/>
<path d="M11.4949 15.2617H20.5989V15.6057H11.4949V15.2617Z" fill="white" stroke="black" stroke-width="0.144" stroke-linejoin="bevel"/>
<path d="M13.8947 17.0137H14.1827V18.3337H13.8947V17.0137ZM17.8147 17.0137H18.1027V18.3337H17.8147V17.0137ZM11.5747 17.0137H11.8547V18.3337H11.5747V17.0137ZM12.1347 17.0137H12.4147V18.3337H12.1347V17.0137ZM12.7347 17.0137H13.0147V18.3337H12.7347V17.0137ZM13.3347 17.0137H13.6147V18.3337H13.3347V17.0137ZM18.3587 17.0137H18.6467V18.3337H18.3587V17.0137ZM18.9587 17.0137H19.2467V18.3337H18.9587V17.0137ZM19.5587 17.0137H19.8467V18.3337H19.5587V17.0137Z" fill="white" stroke="black" stroke-width="0.16" stroke-linejoin="bevel"/>
<path d="M7.93481 18.7658C8.10209 18.6747 8.22808 18.523 8.28681 18.3418H23.7348C23.7936 18.523 23.9195 18.6747 24.0868 18.7658H7.93481Z" fill="white" stroke="black" stroke-width="0.16"/>
<path d="M15.8149 9.75006C15.8149 9.75006 15.8069 9.42206 15.9989 9.41406C16.1829 9.41406 16.1749 9.75006 16.1749 9.75006H15.8149ZM14.8149 14.1101V13.6701C14.8149 13.4461 14.5909 13.4301 14.5909 13.2701C14.5909 13.2701 14.5589 13.0301 14.6229 12.9181C14.7109 13.2381 14.8629 13.1821 14.8629 13.0461C14.8629 12.9341 14.7829 12.8221 14.5989 12.5421C14.5349 12.4541 14.5749 12.1741 14.6549 12.0701C14.6869 12.3101 14.7269 12.4301 14.8309 12.4301C14.8949 12.4301 14.9429 12.3901 14.9429 12.2701C14.9429 12.1101 14.8389 12.0301 14.7829 11.8861C14.7553 11.8144 14.749 11.7363 14.7646 11.6611C14.7802 11.5859 14.8171 11.5168 14.8709 11.4621C14.9109 11.7021 14.9029 11.7981 15.0069 11.7981C15.2229 11.7261 15.0069 11.4141 14.9589 11.3341C14.9109 11.2461 15.0389 11.0621 15.0389 11.0621C15.1029 11.2781 15.1189 11.2941 15.1989 11.2701C15.2949 11.2461 15.2789 11.1101 15.1669 10.9981C15.0949 10.9181 15.1029 10.8141 15.1829 10.7341C15.2629 10.8861 15.3589 10.8781 15.3669 10.7821L15.3029 10.4301H16.6949L16.6229 10.7741C16.6069 10.8701 16.7349 10.8941 16.8149 10.7341C16.8949 10.8141 16.9029 10.9261 16.8309 10.9981C16.7189 11.1101 16.7029 11.2461 16.7989 11.2701C16.8789 11.2941 16.8949 11.2701 16.9589 11.0621C16.9589 11.0621 17.0789 11.1821 17.0389 11.3341C16.9909 11.4141 16.7749 11.7341 16.9909 11.7981C17.0949 11.7981 17.0869 11.7021 17.1269 11.4621C17.1794 11.5177 17.2148 11.5872 17.229 11.6624C17.2432 11.7375 17.2355 11.8151 17.2069 11.8861C17.1589 12.0301 17.0469 12.1101 17.0469 12.2701C17.0469 12.3901 17.1029 12.4301 17.1669 12.4301C17.2709 12.4301 17.3109 12.3181 17.3429 12.0701C17.4229 12.1741 17.4629 12.4541 17.3989 12.5501C17.2149 12.8221 17.1269 12.9341 17.1269 13.0461C17.1269 13.1821 17.2869 13.2381 17.3669 12.9181C17.4389 13.0301 17.4069 13.2701 17.4069 13.2701C17.4069 13.4301 17.1909 13.4461 17.1829 13.6701V14.1101H14.8149ZM15.3909 10.4301L15.3589 10.1821H16.6309L16.5989 10.4301H15.3909ZM15.4709 10.1741L15.4549 9.97406H16.5349L16.5109 10.1741H15.4709ZM15.6549 9.96606L15.6309 9.75807H16.3509L16.3429 9.96606H15.6549ZM18.2949 18.7661C18.1349 18.7101 17.8949 18.5341 17.8949 18.3661V16.4221L18.1029 16.1501H13.8949L14.0949 16.4221V18.3661C14.0949 18.5341 13.9349 18.7101 13.7749 18.7661H18.2949Z" fill="white" stroke="black" stroke-width="0.16"/>
<path d="M14.6309 17.0137H14.9189V18.3337H14.6309V17.0137ZM17.0629 17.0137H17.3509V18.3337H17.0629V17.0137Z" fill="white" stroke="black" stroke-width="0.16" stroke-linejoin="bevel"/>
<path d="M13.8149 13.9424V16.1504H18.1349V13.9424C18.085 13.9606 18.0401 13.9904 18.0039 14.0294C17.9678 14.0683 17.9414 14.1153 17.9269 14.1664V15.1104H14.0309V14.1664C14.0309 14.1664 13.9829 14.0064 13.8069 13.9424H13.8149Z" fill="white" stroke="black" stroke-width="0.16"/>
<path d="M17.5429 18.766C17.3989 18.71 17.0949 18.534 17.0949 18.366V16.19C17.1269 16.07 17.2869 15.998 17.3909 15.918H14.5349C14.6709 15.998 14.8229 16.054 14.8789 16.19V18.366C14.8789 18.534 14.6389 18.71 14.4949 18.766H17.5429Z" fill="white" stroke="black" stroke-width="0.16"/>
<path d="M17.927 15.9417V14.3737H17.535V14.2217H14.431V14.3817H14.031V15.9417H17.927ZM16.935 18.7657C16.791 18.7097 16.591 18.5337 16.591 18.3657V16.5097L16.703 16.3417H15.287L15.407 16.5017V18.3657C15.407 18.5337 15.199 18.7097 15.063 18.7657H16.935Z" fill="white" stroke="black" stroke-width="0.16"/>
<path d="M15.6309 16.3418H16.3509V18.7658H15.6309V16.3418Z" fill="white" stroke="black" stroke-width="0.16"/>
<path d="M16.7268 15.806C16.7268 15.646 17.1908 15.638 17.4308 15.502H14.5508C14.7908 15.638 15.2468 15.646 15.2468 15.806L15.3428 16.118L16.5428 16.166L16.7268 15.806Z" fill="white" stroke="black" stroke-width="0.16" stroke-linejoin="bevel"/>
<path d="M17.2868 14.1101C17.2868 13.7181 17.3028 13.5741 17.4228 13.5741V14.8061C17.1268 14.9181 16.9188 15.2861 16.9188 15.2861H15.0628C15.0628 15.2861 14.8548 14.9181 14.5588 14.8061V13.5661C14.7028 13.5661 14.7028 13.7261 14.7028 14.1021L17.2868 14.1101ZM17.4228 13.9501C17.4228 13.5021 17.8148 13.4541 17.8148 13.4541V13.8541C17.6628 13.8461 17.5908 13.9821 17.5908 14.1741C17.5908 14.3741 17.7108 14.3741 17.7108 14.3741V15.5101H17.4228V13.9501Z" fill="white" stroke="black" stroke-width="0.16"/>
<path d="M14.559 13.9501C14.559 13.5021 14.167 13.4541 14.167 13.4541V13.8541C14.319 13.8461 14.391 13.9821 14.391 14.1741C14.391 14.3741 14.271 14.3741 14.271 14.3741V15.5101H14.559V13.9501Z" fill="white" stroke="black" stroke-width="0.16"/>
<path d="M15.3189 10.8545H16.6949M15.1589 11.2865H16.8389M14.9989 11.8065H16.9909M14.8309 12.4385H17.1909M14.7749 13.1585H17.2069" stroke="black" stroke-width="0.128"/>
<path d="M14.0388 15.5264H17.9268M15.2708 15.5264H16.7108V16.0544H15.2708V15.5264Z" stroke="black" stroke-width="0.16"/>
<path d="M15.095 14.3417C15.335 14.6297 15.303 15.1177 15.303 15.4057H16.695C16.695 15.1177 16.663 14.6297 16.903 14.3417H15.095ZM15.871 11.0617L15.679 10.9577V10.6777C15.759 10.7017 15.839 10.7097 15.855 10.8377C15.879 10.6537 15.935 10.6697 16.007 10.5977C16.087 10.6697 16.127 10.6537 16.159 10.8377C16.159 10.7097 16.255 10.7017 16.327 10.6777V10.9577L16.143 11.0537L15.871 11.0617Z" fill="white" stroke="black" stroke-width="0.16"/>
<path d="M15.8549 11.5177L15.5349 11.2937V11.0457C15.6549 11.0697 15.7749 11.0857 15.7909 11.2217C15.8229 11.0217 15.8949 10.9257 16.0069 10.8457C16.1109 10.9257 16.1829 11.0217 16.2229 11.2217C16.2309 11.0857 16.3589 11.0697 16.4629 11.0457V11.3017L16.1509 11.5177H15.8549Z" fill="white" stroke="black" stroke-width="0.16"/>
<path d="M15.8309 12.2303L15.4709 11.9103V11.5343C15.5989 11.5663 15.7429 11.5823 15.7589 11.7823C15.7989 11.5023 15.8789 11.3503 15.9989 11.2383C16.1269 11.3503 16.2069 11.5023 16.2549 11.7823C16.2709 11.5823 16.4149 11.5663 16.5429 11.5343V11.9103L16.1749 12.2303H15.8309ZM16.5029 12.6543L16.1829 13.1103H15.8069L15.4789 12.6543H16.5029ZM15.2869 13.4143C15.4469 13.5023 15.5109 13.6863 15.5269 14.0223H16.4549C16.4709 13.6863 16.5349 13.5023 16.6949 13.4143H15.2869Z" fill="white" stroke="black" stroke-width="0.16"/>
<path d="M16.711 12.6462V12.1982C16.6421 12.2129 16.5781 12.2448 16.5249 12.291C16.4718 12.3372 16.4312 12.3961 16.407 12.4622C16.407 12.3022 16.207 11.9582 15.991 11.7822C15.775 11.9742 15.567 12.2942 15.575 12.4542C15.535 12.3342 15.431 12.2382 15.271 12.1982V12.6542L16.711 12.6462Z" fill="white" stroke="black" stroke-width="0.16" stroke-linejoin="bevel"/>
<path d="M16.7748 13.4138V12.9658C16.6068 13.0138 16.4948 13.1018 16.4468 13.2298C16.4468 13.0698 16.2308 12.7258 15.9908 12.5498C15.7508 12.7498 15.5268 13.0618 15.5348 13.2298C15.4948 13.1098 15.3748 13.0138 15.2068 12.9658V13.4218L16.7748 13.4138Z" fill="white" stroke="black" stroke-width="0.16" stroke-linejoin="bevel"/>
<path d="M16.9668 14.3505V13.8225C16.8002 13.8745 16.6563 13.9818 16.5588 14.1265C16.5588 13.8465 16.2388 13.4065 15.9908 13.2705C15.7348 13.4145 15.4228 13.8625 15.4228 14.1265C15.3228 13.9808 15.1761 13.8735 15.0068 13.8225V14.3505H16.9668Z" fill="white" stroke="black" stroke-width="0.16" stroke-linejoin="bevel"/>
<path d="M16.855 15.5263V14.9823C16.663 15.0543 16.615 15.2303 16.551 15.3583C16.575 14.8063 16.247 14.2223 15.991 14.0703C15.735 14.2223 15.399 14.8223 15.431 15.3503C15.367 15.2383 15.311 15.0543 15.127 14.9823V15.5183L16.855 15.5263Z" fill="white" stroke="black" stroke-width="0.16" stroke-linejoin="bevel"/>
<path d="M16.7269 16.3424V15.7984C16.5269 15.8464 16.5189 15.9184 16.4549 16.0384C16.4789 15.7104 16.2469 15.3344 15.9909 15.1904C15.7349 15.3344 15.5109 15.7104 15.5269 16.0384C15.4629 15.9184 15.4549 15.8464 15.2549 15.7984V16.3424H16.7269Z" fill="white" stroke="black" stroke-width="0.16"/>
<path d="M8.295 18.3419V16.7099C8.239 16.5019 8.055 16.3099 7.927 16.2779V14.8379L8.223 14.9979L8.567 16.5099V18.3499L8.295 18.3419Z" fill="white" stroke="black" stroke-width="0.16"/>
<path d="M8.295 18.3502V16.7102C8.239 16.5022 8.055 16.3102 7.927 16.2782V14.7422C8.127 14.7422 8.223 14.9982 8.223 14.9982L8.567 16.5102V18.3422L8.295 18.3502Z" fill="white" stroke="black" stroke-width="0.16"/>
<path d="M8.0791 18.7662C8.2151 18.7102 8.4151 18.5342 8.4151 18.3662V16.3182L8.3191 16.1582H11.8151L11.6791 16.3182V18.3662C11.685 18.451 11.7132 18.5327 11.761 18.603C11.8088 18.6732 11.8744 18.7296 11.9511 18.7662H8.0791Z" fill="white" stroke="black" stroke-width="0.16"/>
<path d="M11.2389 18.7664C11.1029 18.7104 10.9029 18.5344 10.9029 18.3664V16.4224L11.1909 16.1504H8.8229L9.1109 16.4224V18.3664C9.1109 18.5344 8.9109 18.7104 8.7749 18.7664H11.2389Z" fill="white" stroke="black" stroke-width="0.16"/>
<path d="M10.911 18.7668C10.775 18.7108 10.567 18.5348 10.567 18.3668V16.6068L10.759 16.3428H9.25503L9.44703 16.6068V18.3668C9.44703 18.5348 9.24703 18.7108 9.10303 18.7668H10.911Z" fill="white" stroke="black" stroke-width="0.16"/>
<path d="M9.65497 16.3428H10.367V18.7748H9.64697L9.65497 16.3428Z" fill="white" stroke="black" stroke-width="0.16"/>
<path d="M8.6711 17.0142H8.9591V18.3342H8.6711V17.0142ZM11.1351 17.0142H11.4151V18.3342H11.1271L11.1351 17.0142ZM8.4231 14.7902H8.7751V16.1502H8.4231V14.7902ZM8.4231 14.5342H8.7671V14.7902H8.4231V14.5342ZM11.2711 15.0862H11.7591V16.1262H11.2711V15.0862Z" fill="white"/>
<path d="M8.4231 14.7902H8.7751V16.1502H8.4231V14.7902ZM8.4231 14.7902H8.7671V14.5342H8.4231V14.7902ZM8.6711 17.0142H8.9591V18.3342H8.6711V17.0142ZM11.1351 17.0142H11.4151V18.3342H11.1271L11.1351 17.0142ZM11.2711 15.0862H11.7591V16.1262H11.2711V15.0862Z" stroke="black" stroke-width="0.16" stroke-linejoin="bevel"/>
<path d="M8.76709 16.1344V13.8144C8.86309 13.8144 8.87909 14.1584 9.10309 14.1584C9.22309 14.1584 9.21509 14.0144 9.14309 13.9024C9.08709 13.7984 9.01509 13.6624 9.11109 13.3984C9.18309 13.5984 9.35909 13.6624 9.32709 13.5424C9.27109 13.3264 9.10309 13.2864 9.23109 12.9584C9.27109 13.2304 9.44709 13.2224 9.40709 13.0624C9.35909 12.8784 9.25509 12.7984 9.38309 12.5424C9.45509 12.8384 9.54309 12.8224 9.54309 12.6384C9.54309 12.3664 9.54309 12.0784 9.87909 11.9744C9.87909 11.9744 9.90309 11.7344 10.0311 11.7344C10.1511 11.7344 10.1751 11.9744 10.1751 11.9744C10.5191 12.0784 10.5111 12.3744 10.5111 12.6384C10.5111 12.8224 10.5991 12.8384 10.6711 12.5424C10.7991 12.7984 10.6951 12.8784 10.6471 13.0624C10.6071 13.2224 10.7831 13.2304 10.8231 12.9584C10.9511 13.2864 10.7831 13.3264 10.7271 13.5424C10.6951 13.6624 10.8711 13.5984 10.9431 13.3984C11.0391 13.6624 10.9671 13.7984 10.9111 13.9024C10.8471 14.0144 10.8311 14.1584 10.9511 14.1584C11.1751 14.1584 11.1911 13.8224 11.2871 13.8224V16.1344H8.76709ZM8.21509 14.3824V16.1504H8.41509V14.3824C8.34309 14.3424 8.27909 14.3424 8.21509 14.3824Z" fill="white" stroke="black" stroke-width="0.16"/>
<path d="M8.23096 15.5266C8.47896 15.6546 8.72696 15.8066 8.79096 16.1506H8.23096V15.5266ZM11.687 14.9986V16.1506H11.847V14.9986C11.799 14.9746 11.727 14.9666 11.687 14.9986Z" fill="white" stroke="black" stroke-width="0.16"/>
<path d="M11.8471 15.5266C11.5991 15.6466 11.3511 15.7906 11.2871 16.1426H11.8471V15.5266ZM10.1991 12.8306L10.3431 12.7106V12.5506C10.2951 12.5506 10.2631 12.5746 10.2231 12.6306C10.2075 12.5792 10.1818 12.5315 10.1475 12.4903C10.1131 12.4491 10.0708 12.4152 10.0231 12.3906C9.97464 12.4134 9.93128 12.4457 9.89555 12.4855C9.85982 12.5254 9.83245 12.572 9.81507 12.6226C9.77507 12.5666 9.75107 12.5586 9.69507 12.5426V12.7026L9.83907 12.8306H10.1991Z" fill="white" stroke="black" stroke-width="0.16"/>
<path d="M10.2791 13.222L10.3431 13.07V12.87C10.2951 12.87 10.2631 12.894 10.2231 12.95C10.2075 12.8986 10.1818 12.8509 10.1475 12.8096C10.1131 12.7684 10.0708 12.7345 10.0231 12.71C9.97464 12.7327 9.93128 12.765 9.89555 12.8049C9.85982 12.8447 9.83245 12.8913 9.81507 12.942C9.77507 12.886 9.75107 12.878 9.69507 12.87V13.07L9.75907 13.222H10.2791Z" fill="white" stroke="black" stroke-width="0.16"/>
<path d="M10.2949 13.7507L10.5029 13.4867V13.2307C10.4229 13.2307 10.3829 13.2707 10.3269 13.3587C10.2709 13.1747 10.1669 13.1427 10.0229 13.0547C9.87091 13.1347 9.76691 13.1747 9.71891 13.3507C9.65491 13.2627 9.61491 13.2387 9.53491 13.2307V13.4867L9.75091 13.7507H10.2949Z" fill="white" stroke="black" stroke-width="0.16"/>
<path d="M10.3511 14.2702C10.3511 14.2702 10.6071 14.0542 10.6151 13.9342V13.6542C10.5191 13.6622 10.4311 13.6863 10.3591 13.8062C10.2951 13.5742 10.1991 13.5102 10.0231 13.4062C9.8391 13.5102 9.7431 13.5742 9.6871 13.8062C9.6071 13.6863 9.5271 13.6622 9.4231 13.6462V13.9342C9.49029 14.0611 9.5797 14.1749 9.6871 14.2702H10.3511Z" fill="white" stroke="black" stroke-width="0.16"/>
<path d="M10.455 15.2304C10.455 15.2304 10.807 14.8544 10.815 14.7024V14.2704C10.687 14.2864 10.559 14.3744 10.463 14.5584C10.383 14.1984 10.255 13.9504 10.023 13.7744C9.78296 13.9504 9.65496 14.1984 9.57496 14.5584C9.47896 14.3744 9.35896 14.2864 9.23096 14.2704V14.7024C9.25496 14.8544 9.58296 15.2304 9.58296 15.2304H10.455Z" fill="white" stroke="black" stroke-width="0.16"/>
<path d="M10.455 15.7983C10.455 15.7983 10.751 15.5023 10.815 15.3743V14.9423C10.687 14.9583 10.559 15.0463 10.463 15.2223C10.4416 15.0768 10.3917 14.9368 10.3162 14.8106C10.2407 14.6843 10.141 14.5741 10.023 14.4863C9.78296 14.6623 9.65496 14.8623 9.57496 15.2223C9.47896 15.0463 9.35896 14.9583 9.23096 14.9423V15.3743C9.31096 15.5023 9.58296 15.7983 9.58296 15.7983H10.455Z" fill="white" stroke="black" stroke-width="0.16"/>
<path d="M10.5749 16.1342C10.4949 15.7582 10.4149 15.4782 10.0069 15.1982C9.59091 15.4782 9.51891 15.7582 9.43091 16.1342H10.5749Z" fill="white" stroke="black" stroke-width="0.16"/>
<path d="M10.791 16.3423V15.7983C10.599 15.8783 10.431 15.9823 10.367 16.1023C10.303 15.7983 10.167 15.6703 9.99896 15.4863C9.83096 15.6703 9.71896 15.8063 9.64696 16.1023C9.58296 15.9823 9.41496 15.8703 9.23096 15.7983V16.3423H10.791Z" fill="white" stroke="black" stroke-width="0.16"/>
<path d="M23.7109 18.3419V16.7099C23.7669 16.5019 23.9509 16.3099 24.0789 16.2779V14.8379L23.7829 14.9979L23.4389 16.5099V18.3499L23.7109 18.3419Z" fill="white" stroke="black" stroke-width="0.16"/>
<path d="M23.7109 18.3502V16.7102C23.7669 16.5022 23.9509 16.3102 24.0789 16.2782V14.7422C23.8789 14.7422 23.7829 14.9982 23.7829 14.9982L23.4389 16.5102V18.3422L23.7109 18.3502Z" fill="white" stroke="black" stroke-width="0.16"/>
<path d="M23.9268 18.7662C23.7908 18.7102 23.5908 18.5342 23.5908 18.3662V16.3182L23.6868 16.1582H20.1908L20.3268 16.3182V18.3662C20.3209 18.451 20.2926 18.5327 20.2448 18.603C20.197 18.6732 20.1314 18.7296 20.0548 18.7662H23.9268Z" fill="white" stroke="black" stroke-width="0.16"/>
<path d="M20.767 18.7664C20.903 18.7104 21.103 18.5344 21.103 18.3664V16.4224L20.815 16.1504H23.183L22.895 16.4224V18.3664C22.895 18.5344 23.095 18.7104 23.231 18.7664H20.767Z" fill="white" stroke="black" stroke-width="0.16"/>
<path d="M21.0948 18.7668C21.2308 18.7108 21.4388 18.5348 21.4388 18.3668V16.6068L21.2468 16.3428H22.7508L22.5588 16.6068V18.3668C22.5588 18.5348 22.7588 18.7108 22.9028 18.7668H21.0948Z" fill="white" stroke="black" stroke-width="0.16"/>
<path d="M22.3509 16.3428H21.6389V18.7748H22.3589L22.3509 16.3428Z" fill="white" stroke="black" stroke-width="0.16"/>
<path d="M23.3348 17.0142H23.0468V18.3342H23.3348V17.0142ZM20.8708 17.0142H20.5908V18.3342H20.8788L20.8708 17.0142ZM23.5828 14.7902H23.2308V16.1502H23.5828V14.7902ZM23.5828 14.5342H23.2388V14.7902H23.5828V14.5342ZM20.7348 15.0862H20.2468V16.1262H20.7348V15.0862Z" fill="white"/>
<path d="M23.5828 14.7902H23.2308V16.1502H23.5828V14.7902ZM23.5828 14.7902H23.2388V14.5342H23.5828V14.7902ZM23.3348 17.0142H23.0468V18.3342H23.3348V17.0142ZM20.8708 17.0142H20.5908V18.3342H20.8788L20.8708 17.0142ZM20.7348 15.0862H20.2468V16.1262H20.7348V15.0862Z" stroke="black" stroke-width="0.16" stroke-linejoin="bevel"/>
<path d="M23.2388 16.1344V13.8144C23.1428 13.8144 23.1268 14.1584 22.9028 14.1584C22.7828 14.1584 22.7908 14.0144 22.8628 13.9024C22.9188 13.7984 22.9908 13.6624 22.8948 13.3984C22.8228 13.5984 22.6468 13.6624 22.6788 13.5424C22.7348 13.3264 22.9028 13.2864 22.7748 12.9584C22.7348 13.2304 22.5588 13.2224 22.5988 13.0624C22.6468 12.8784 22.7508 12.7984 22.6228 12.5424C22.5508 12.8384 22.4628 12.8224 22.4628 12.6384C22.4628 12.3664 22.4628 12.0784 22.1268 11.9744C22.1268 11.9744 22.1028 11.7344 21.9748 11.7344C21.8548 11.7344 21.8308 11.9744 21.8308 11.9744C21.4868 12.0784 21.4948 12.3744 21.4948 12.6384C21.4948 12.8224 21.4068 12.8384 21.3348 12.5424C21.2068 12.7984 21.3108 12.8784 21.3588 13.0624C21.3988 13.2224 21.2228 13.2304 21.1828 12.9584C21.0548 13.2864 21.2228 13.3264 21.2788 13.5424C21.3108 13.6624 21.1348 13.5984 21.0628 13.3984C20.9668 13.6624 21.0388 13.7984 21.0948 13.9024C21.1588 14.0144 21.1748 14.1584 21.0548 14.1584C20.8308 14.1584 20.8148 13.8224 20.7188 13.8224V16.1344H23.2388ZM23.7908 14.3824V16.1504H23.5908V14.3824C23.6628 14.3424 23.7268 14.3424 23.7908 14.3824Z" fill="white" stroke="black" stroke-width="0.16"/>
<path d="M23.7749 15.5266C23.5269 15.6546 23.2789 15.8066 23.2149 16.1506H23.7749V15.5266ZM20.3189 14.9986V16.1506H20.1589V14.9986C20.2069 14.9746 20.2789 14.9666 20.3189 14.9986Z" fill="white" stroke="black" stroke-width="0.16"/>
<path d="M20.1588 15.5266C20.4068 15.6466 20.6548 15.7906 20.7188 16.1426H20.1588V15.5266ZM21.8068 12.8306L21.6628 12.7106V12.5506C21.7108 12.5506 21.7428 12.5746 21.7828 12.6306C21.7983 12.5792 21.824 12.5315 21.8584 12.4903C21.8928 12.4491 21.9351 12.4152 21.9828 12.3906C22.0312 12.4134 22.0746 12.4457 22.1103 12.4855C22.146 12.5254 22.1734 12.572 22.1908 12.6226C22.2308 12.5666 22.2548 12.5586 22.3108 12.5426V12.7026L22.1668 12.8306H21.8068Z" fill="white" stroke="black" stroke-width="0.16"/>
<path d="M21.7268 13.222L21.6628 13.07V12.87C21.7108 12.87 21.7428 12.894 21.7828 12.95C21.7983 12.8986 21.824 12.8509 21.8584 12.8096C21.8928 12.7684 21.9351 12.7345 21.9828 12.71C22.0312 12.7327 22.0746 12.765 22.1103 12.8049C22.146 12.8447 22.1734 12.8913 22.1908 12.942C22.2308 12.886 22.2548 12.878 22.3108 12.87V13.07L22.2468 13.222H21.7268Z" fill="white" stroke="black" stroke-width="0.16"/>
<path d="M21.7109 13.7507L21.5029 13.4867V13.2307C21.5829 13.2307 21.6229 13.2707 21.6789 13.3587C21.7349 13.1747 21.8389 13.1427 21.9829 13.0547C22.1349 13.1347 22.2389 13.1747 22.2869 13.3507C22.3509 13.2627 22.3909 13.2387 22.4709 13.2307V13.4867L22.2549 13.7507H21.7109Z" fill="white" stroke="black" stroke-width="0.16"/>
<path d="M21.6548 14.2702C21.6548 14.2702 21.3988 14.0542 21.3908 13.9342V13.6542C21.4868 13.6622 21.5748 13.6863 21.6468 13.8062C21.7108 13.5742 21.8068 13.5102 21.9828 13.4062C22.1668 13.5102 22.2628 13.5742 22.3188 13.8062C22.3988 13.6863 22.4788 13.6622 22.5828 13.6462V13.9342C22.5156 14.0611 22.4262 14.1749 22.3188 14.2702H21.6548Z" fill="white" stroke="black" stroke-width="0.16"/>
<path d="M21.5509 15.2304C21.5509 15.2304 21.1989 14.8544 21.1909 14.7024V14.2704C21.3189 14.2864 21.4469 14.3744 21.5429 14.5584C21.6229 14.1984 21.7509 13.9504 21.9829 13.7744C22.2229 13.9504 22.3509 14.1984 22.4309 14.5584C22.5269 14.3744 22.6469 14.2864 22.7749 14.2704V14.7024C22.7509 14.8544 22.4229 15.2304 22.4229 15.2304H21.5509Z" fill="white" stroke="black" stroke-width="0.16"/>
<path d="M21.5509 15.7983C21.5509 15.7983 21.2549 15.5023 21.1909 15.3743V14.9423C21.3189 14.9583 21.4469 15.0463 21.5429 15.2223C21.5643 15.0768 21.6142 14.9368 21.6897 14.8106C21.7652 14.6843 21.8648 14.5741 21.9829 14.4863C22.2229 14.6623 22.3509 14.8623 22.4309 15.2223C22.5269 15.0463 22.6469 14.9583 22.7749 14.9423V15.3743C22.6949 15.5023 22.4229 15.7983 22.4229 15.7983H21.5509Z" fill="white" stroke="black" stroke-width="0.16"/>
<path d="M21.431 16.1342C21.511 15.7582 21.591 15.4782 21.999 15.1982C22.415 15.4782 22.487 15.7582 22.575 16.1342H21.431Z" fill="white" stroke="black" stroke-width="0.16"/>
<path d="M21.2149 16.3423V15.7983C21.4069 15.8783 21.5749 15.9823 21.6389 16.1023C21.7029 15.7983 21.8389 15.6703 22.0069 15.4863C22.1749 15.6703 22.2869 15.8063 22.3589 16.1023C22.4229 15.9823 22.5909 15.8703 22.7749 15.7983V16.3423H21.2149Z" fill="white" stroke="black" stroke-width="0.16"/>
<path d="M6.1909 20.7501H25.8149V21.7501H6.1909V20.7501ZM5.6709 21.7501H26.3349V22.7501H5.6709V21.7501ZM7.2229 19.2461H24.7749V19.8941H7.2229V19.2461Z" fill="white" stroke="black" stroke-width="0.16"/>
<path d="M6.71094 19.894H25.3029V20.742H6.71094V19.894ZM7.52694 18.75H24.4869V19.246H7.52694V18.75Z" fill="white" stroke="black" stroke-width="0.16"/>
<path d="M9.36694 18.75H10.6469V22.75H9.36694V18.75Z" fill="white" stroke="black" stroke-width="0.16"/>
<path d="M9.65497 18.75H10.367V22.75H9.64697L9.65497 18.75ZM15.335 18.75H16.615V22.75H15.335V18.75Z" fill="white" stroke="black" stroke-width="0.16"/>
<path d="M15.6309 18.75H16.3509V22.75H15.6309V18.75ZM21.3509 18.75H22.6309V22.75H21.3509V18.75Z" fill="white" stroke="black" stroke-width="0.16"/>
<path d="M21.6309 18.75H22.3509V22.75H21.6309V18.75Z" fill="white" stroke="black" stroke-width="0.16"/>
<path d="M8.29492 18.3418H23.7349M9.63892 22.2458H10.3749M9.63892 21.7418H10.3749M9.63892 21.2458H10.3749M9.63892 20.7418H10.3749M9.63892 20.2458H10.3749M9.63892 19.7418H10.3749M9.63892 19.2458H10.3749M15.6389 22.2458H16.3269M15.6389 21.7418H16.3269M15.6389 21.2458H16.3269M15.6389 20.7418H16.3269M15.6389 20.2458H16.3269M15.6389 19.7418H16.3269M15.6389 19.2458H16.3269M21.6229 22.2458H22.3589M21.6229 21.7418H22.3589M21.6229 21.2458H22.3589M21.6229 20.7418H22.3589M21.6229 20.2458H22.3589M21.6229 19.7418H22.3589M21.6229 19.2458H22.3589" stroke="black" stroke-width="0.16"/>
</g>
<defs>
<clipPath id="clip0_142_2669">
<rect width="32" height="32" rx="16" fill="white"/>
</clipPath>
</defs>
</svg>
